<svg width="236" height="61" viewBox="0 0 236 61" fill="none" xmlns="http://www.w3.org/2000/svg">
<path d="M36.243 30.0577C36.9315 29.9942 37.5973 30.1941 38.0527 30.7318C38.4176 31.1617 38.5954 31.7196 38.5465 32.2812C38.3767 34.2524 38.0047 36.2728 37.7903 38.2456C37.6595 39.45 37.5119 40.6903 37.2807 41.8755C37.2435 42.0659 37.0691 42.2364 36.9252 42.3536C35.7132 43.323 34.7017 40.8019 33.6332 40.6725C33.4322 40.6482 33.081 41.0107 32.9629 41.1621C32.3723 41.9194 31.8011 42.7294 31.2344 43.5048C30.0077 45.2078 28.7532 46.8906 27.4715 48.5526C26.8315 49.3664 25.9512 50.4773 25.1476 51.1321C24.4368 51.7108 23.5831 52.0875 22.6762 52.2224C18.3203 52.9067 16.8086 47.2252 14.589 47.0685C14.1776 47.0395 13.8714 47.2384 13.5722 47.4941C12.5011 48.4096 11.6311 49.7618 10.7904 50.8836C9.27558 52.9306 7.7723 54.9863 6.28068 57.0503C4.9703 58.8766 4.72368 60.0299 2.2367 59.8418C0.664022 59.6248 -0.595827 57.9067 0.296576 56.422C0.54012 56.0169 0.895495 55.5928 1.1762 55.2026L2.99473 52.6666L6.59162 47.7432C8.26229 45.4832 10.551 42.057 13.3704 41.2758C16.2246 40.485 18.2334 42.381 19.8924 44.394C20.2809 44.8653 20.8142 45.4535 21.3315 45.7837C22.2168 46.3365 22.9824 45.6168 23.5407 44.9511C24.8786 43.3557 26.0564 41.6013 27.2936 39.9246C27.9341 39.0566 28.6114 38.1791 29.1908 37.2728C29.763 36.3533 26.9636 34.8328 26.7855 33.9173C26.7354 33.6599 26.6894 33.5566 26.8438 33.2789C26.978 33.0509 27.3813 32.7599 27.6381 32.6828C30.4933 31.8251 33.3755 30.8637 36.243 30.0577Z" fill="white"/>
<path fill-rule="evenodd" clip-rule="evenodd" d="M90.8276 0C91.761 0.112871 96.5472 2.51609 97.4975 3.2471C98.0826 3.69754 98.1059 4.42524 98.0942 5.08401C98.9715 5.30606 99.7845 5.56226 100.701 5.53468C104.268 5.42665 110.079 2.97551 113.475 3.70119C115.696 2.76883 119.157 1.54262 121.597 1.44442C124.974 1.30904 132.401 4.30721 136.153 5.28823C137.243 5.03468 137.501 5.21378 137.655 4.13589C137.698 3.84169 137.962 3.17238 138.343 3.03375C140.164 2.37246 144.607 -1.29843 146.215 0.73248C146.682 1.42006 147.694 3.60357 148.091 4.44622C149.009 6.4071 149.948 8.36067 150.904 10.3061L155.034 18.8551C155.766 20.3627 156.531 21.8787 157.198 23.4086C157.366 23.7934 157.299 24.6408 157.008 24.9774C156.16 25.9225 154.718 26.2783 153.527 26.7595C152.552 27.0905 151.576 27.5701 150.566 27.792C149.172 28.0978 148.46 27.1205 147.867 26.2198C146.627 27.1612 145.392 28.1088 144.164 29.063C145.13 32.2699 143.872 34.9876 140.237 35.8117C140.162 35.8188 139.455 35.8933 139.442 35.9007C139.026 36.4323 138.948 37.2102 138.617 37.8243C137.442 39.9956 135.509 40.4873 133.12 40.1894C132.029 43.4284 129.712 44.7716 126.146 43.7948C126.035 44.055 125.899 44.3784 125.754 44.6208C125.166 45.6263 124.171 46.3744 122.986 46.7008C120.615 47.3355 118.466 46.0295 116.455 45.0053C115.814 45.7239 115.401 46.1796 114.518 46.6517C113.451 47.2333 112.174 47.3929 110.979 47.0932C109.235 46.6585 108.419 45.6749 107.582 44.3116C104.591 44.8329 102.746 43.3694 101.728 40.8923C98.1882 41.2112 95.8253 39.1029 95.9789 35.8242C93.2024 35.4748 91.3362 34.6169 91.1539 31.5971C91.1059 30.8143 91.3926 30.0815 91.7369 29.3722C91.1555 28.786 88.5764 26.7988 87.8406 26.2723C87.4097 26.9731 86.3733 28.1837 85.3488 27.8936C83.435 27.3511 81.5216 26.5819 79.676 25.8502C78.5671 25.4103 77.9861 24.3917 78.4233 23.3059C78.9726 22.0119 79.6419 20.7516 80.2522 19.4792L84.4554 10.7967C85.4161 8.8318 86.3622 6.86104 87.2941 4.88434C87.9317 3.53205 88.5591 1.96182 89.4516 0.738185C89.8034 0.255928 90.2553 0.148775 90.8276 0ZM113.078 39.8152C111.324 40.5633 108.978 44.1422 112.521 44.1245C114.102 43.4303 116.616 39.9719 113.078 39.8152ZM106.598 7.79031C103.046 8.4965 100.395 9.44826 96.9179 8.11091C96.3048 9.2535 95.7147 10.4639 95.1688 11.6375C93.3423 15.5644 91.2939 19.432 89.4972 23.3664C90.7171 24.3017 92.7877 25.9968 94.0108 26.8063C95.2412 25.8238 96.426 25.1409 98.1341 25.2614C99.4049 25.3616 100.579 25.9277 101.396 26.8337C101.709 27.1749 101.987 27.5441 102.223 27.9347C105.948 26.4762 108.729 27.6442 109.757 31.3198C112.828 31.553 115.017 33.3671 114.696 36.3536C114.678 36.5187 114.654 36.6839 114.625 36.8476C117.474 37.8429 118.622 39.4395 118.143 42.2545C119.388 42.9232 121.885 44.7349 122.863 42.9083C123.012 42.6235 123.028 42.2946 122.906 41.999C122.175 40.2038 115.119 37.7551 119.036 35.8356C121.371 34.6923 127.254 43.1395 129.423 40.0434C131.628 36.8958 118.233 33.1327 122.971 30.2975C123.004 30.2778 123.35 30.2049 123.425 30.1903C124.651 30.2915 125.977 31.5007 126.944 32.2212L131.069 35.3062C131.792 35.8485 132.884 36.7533 133.734 36.9891C135.538 37.4895 136.419 35.2414 135.212 34.0934C134.396 33.3159 133.673 32.7904 132.791 32.1196L128.872 29.1349C128.272 28.6736 127.532 28.2056 127.047 27.6392C126.764 27.3098 126.548 26.9263 126.565 26.4959C126.581 26.0654 126.846 25.6233 127.198 25.3482C127.503 25.1102 127.914 24.9737 128.314 25.0139C129.998 25.1837 136.434 31.392 138.895 32.4322C138.933 32.4486 138.972 32.4671 139.012 32.4836C139.035 32.4935 139.059 32.5026 139.082 32.5121C140.203 32.3369 141.325 31.8604 141.072 30.5885C140.989 30.1651 140.767 29.7749 140.438 29.4715C139.619 28.7074 137.87 27.4403 136.918 26.7139C134.609 24.9461 132.286 23.1929 129.95 21.4553C127.063 19.2894 123.282 16.1573 120.354 14.1738C118.953 14.2002 117.562 14.212 116.165 14.329C113.557 16.7531 111.912 19.1313 107.808 19.1358C106.094 19.1374 103.567 18.5577 102.32 17.4027C101.915 17.027 101.642 16.5653 101.642 16.0233C101.645 14.4643 106.752 8.9643 106.81 7.85648L106.598 7.79031ZM109.388 34.5042C108.234 35.1126 107.305 36.7344 106.382 37.6223C105.133 38.823 103.912 41.2874 106.85 41.3053C107.684 40.9605 114.51 34.3756 109.388 34.5042ZM104.346 30.3637C103.127 31.002 95.9938 38.4702 101.446 37.8494C102.567 37.1706 105.746 33.3257 106.276 32.0466C106.755 30.8902 105.597 30.2603 104.346 30.3637ZM97.4267 28.3773C96.3041 28.8248 95.2934 30.0314 94.8071 31.0551C94.4716 31.762 94.677 32.1235 95.0661 32.754C95.6682 33.0209 95.7475 33.0975 96.4124 33.1213C98.0449 32.5413 101.143 28.3672 97.4267 28.3773ZM121.572 4.55119C119.509 4.8294 113.242 7.06381 111 7.8348C109.926 9.2696 108.939 10.8283 107.886 12.2924C107.12 13.3573 106.242 14.3758 105.499 15.422C107.014 15.9221 108.342 16.2085 109.872 15.5258C112.038 14.559 113.014 11.762 115.314 11.2553C116.275 11.0438 117.331 11.131 118.314 11.099C119.302 11.0668 120.426 10.8161 121.388 11.099C122.828 11.5228 130.837 18.0908 132.734 19.4073L142.045 26.4058C143.411 25.3712 144.787 24.3464 146.171 23.3321L138.734 8.05272C135.48 8.91066 135.511 8.43655 132.453 7.60433C129.761 6.87113 124.198 4.38118 121.572 4.55119Z" fill="white"/>
<path d="M233.712 39.2695C235.551 39.1018 236.036 40.3152 235.998 41.8891C235.896 47.1433 233.699 52.1392 229.895 55.7652C226.285 59.2367 221.436 61.1211 216.429 60.9998C210.658 60.8365 205.994 58.3269 202.088 54.2067C201.483 54.5812 199.694 56.1632 199.122 56.0014C198.832 55.6715 198.771 52.5567 198.729 51.8986C198.639 50.2205 198.369 48.2918 198.518 46.656C198.59 45.864 200.54 46.7668 200.854 46.9526C201.743 47.479 207.029 49.3883 207.257 50.0537C207.195 50.5878 205.69 51.4916 205.155 51.9453C206.354 53.4968 208.596 55.0224 210.361 55.8371C213.985 57.5282 218.13 57.7186 221.894 56.3687C227.196 54.3971 231.06 49.7656 232.046 44.195C232.128 43.7353 232.22 43.1554 232.248 42.6935C232.339 41.178 231.918 39.9127 233.712 39.2695Z" fill="white"/>
<path fill-rule="evenodd" clip-rule="evenodd" d="M216.819 29.8842C219.067 29.6392 218.943 30.5374 219.324 32.4239C220.222 32.7218 220.725 32.9057 221.554 33.372C222.086 33.1219 223.074 32.3701 223.505 32.2665C224.215 32.0968 226.006 34.0997 226.095 34.7252C226.15 35.1238 225.172 36.4966 224.938 36.8724C225.418 37.6754 225.553 38.1362 225.849 39.0151C227.518 39.6312 228.561 38.9619 228.423 41.3415C228.386 41.9904 228.496 42.6209 228.144 43.2286C227.774 43.5414 226.398 43.7667 225.853 43.8881C225.62 44.7572 225.376 45.2912 224.987 46.0866C225.253 46.641 225.873 47.4784 226.063 47.9338C226.349 48.6277 224.329 50.5551 223.75 50.7576C223.332 50.9029 221.912 49.8579 221.499 49.6224C220.763 50.0176 220.099 50.2724 219.318 50.55C219.164 51.2123 219.03 52.1809 218.727 52.7463C218.599 52.9841 218.364 53.0223 218.117 53.0646C217.712 53.1155 217.279 53.1011 216.893 53.1388C214.713 53.3519 214.81 52.3573 214.459 50.5716C213.572 50.276 213.079 50.0402 212.264 49.6167C211.812 49.8841 210.821 50.5732 210.425 50.7223C209.651 51.0133 207.86 48.9073 207.667 48.2761C207.543 47.8632 208.49 46.5402 208.739 46.1482C208.36 45.3616 208.114 44.7425 207.874 43.9109C207.31 43.7649 206.264 43.5459 205.785 43.3507C205.059 43.0548 205.253 40.3085 205.553 39.7864C205.727 39.483 207.52 39.144 207.916 39.0493C208.169 38.1313 208.388 37.6567 208.814 36.8211C208.538 36.392 207.745 35.2411 207.662 34.8906C207.497 34.1995 209.427 32.3861 210.043 32.271C210.471 32.1922 211.831 33.1287 212.244 33.3686C213.057 32.9543 213.597 32.7268 214.45 32.4296C214.619 31.7598 214.711 31.048 214.949 30.4136C215.059 30.1196 215.231 30.0579 215.509 29.9458C215.916 29.9131 216.434 29.9262 216.819 29.8842ZM222.295 41.0209C222.029 38.0346 219.387 35.833 216.401 36.1092C213.429 36.3842 211.241 39.0114 211.506 41.9838C211.771 44.9559 214.39 47.1539 217.363 46.899C220.35 46.6425 222.561 44.0073 222.295 41.0209Z" fill="white"/>
<path d="M215.742 21.8851C221.851 21.6741 226.011 23.4223 230.451 27.5145C231.018 27.1802 232.75 25.6318 233.223 25.6901C233.249 25.7176 233.28 25.7459 233.3 25.7791C233.51 26.1369 234.217 34.4545 234.069 34.8302C233.998 35.0066 233.82 35.1799 233.643 35.2455C233.443 35.3193 233.216 35.2555 233.021 35.1918C231.775 34.7846 230.546 34.1529 229.333 33.6413C228.253 33.1858 227.119 32.806 226.062 32.3053C225.761 32.1632 225.484 32.0283 225.369 31.7017C225.467 31.021 226.776 30.3574 227.378 29.8351L227.438 29.7838C226.915 29.215 225.265 28.0174 224.556 27.632C220.591 25.4802 216.921 25.0386 212.632 26.207C206.93 27.8837 202.639 32.6017 201.51 38.4367C201.415 38.9429 201.337 39.4732 201.287 39.9872C201.211 40.7756 201.363 41.5901 200.873 42.2782C200.565 42.711 200.131 42.976 199.606 43.0438C199.101 43.1061 198.592 42.9614 198.195 42.6433C197.113 41.7868 197.473 40.0691 197.637 38.8588C198.121 35.1553 199.666 31.6711 202.087 28.8266C205.644 24.5726 210.275 22.3657 215.742 21.8851Z" fill="white"/>
</svg>
