<svg width="196" height="45" viewBox="0 0 196 45" fill="none" xmlns="http://www.w3.org/2000/svg">
<path d="M8.88031 39.7937C8.55931 39.6486 8.28954 39.4232 7.99586 39.1534L7.99244 24.1962L6.31744 25.7619L6.30378 37.2104C5.93668 36.886 5.66349 36.5103 5.4142 36.0783V25.3829L8.73347 22.2531L10.2668 23.6413L10.2719 17.1615L15.1432 12.4387L15.1501 31.3572L13.8336 33.874L13.8165 15.2577L11.3442 17.5764L11.3339 41.5251L10.2719 40.9292V24.816L8.87519 23.6293L8.87861 39.7954L8.88031 39.7937Z" fill="white"/>
<path d="M2.23839 23.2196C-0.421811 30.9321 2.69428 38.146 9.33624 42.5188C10.3932 43.2462 11.5149 43.8028 12.5053 44.6822C5.00787 42.8381 -0.150327 35.9981 0.00334326 28.4051C0.0528592 25.9771 0.652173 23.7574 1.59298 21.5446C2.67891 19.0807 4.08755 16.8986 5.82232 14.8479L10.0534 9.84513C11.2896 8.38356 12.4404 6.95101 13.4648 5.34601C14.4893 3.74101 15.0391 2.00454 15.3908 0C15.8672 1.2157 15.4404 2.4314 15.0664 3.57198C13.1934 9.30387 5.0847 14.9658 2.23668 23.2213L2.23839 23.2196Z" fill="white"/>
<path d="M29.4243 24.1194C27.5837 27.6538 25.2667 30.3533 21.8927 32.7966C22.3572 31.0345 22.8233 29.1324 22.7943 27.4199C22.3281 29.7249 21.6452 31.9241 20.397 33.9611C17.1375 36.565 15.0135 39.5649 14.0129 43.5791C13.1643 39.4915 13.9719 35.45 16.1523 32.0027C18.6127 28.1148 22.1916 25.8798 25.9565 23.4603C27.7288 22.3214 29.3287 21.1092 30.7476 19.5485C32.3611 23.8308 32.6701 28.2685 30.6263 32.1888C29.4226 34.3009 27.5239 35.8103 25.113 36.1705L22.072 36.6247C20.8393 36.8091 19.7431 37.137 18.4591 37.5467C19.6543 35.9895 21.0305 34.7158 22.6372 33.6982C24.7971 32.3305 27.1414 31.8797 29.3577 30.816L24.3907 31.9634C26.7436 29.7369 28.4835 27.244 29.426 24.116L29.4243 24.1194Z" fill="white"/>
<path d="M16.3863 40.6987C17.7625 39.1381 19.5212 38.2622 21.5087 37.8199L24.8109 37.4323C26.3356 37.2531 27.7204 36.8689 29.1188 36.1466C27.6213 39.0954 25.4085 41.438 22.6373 43.0464C20.3169 44.3355 17.8633 45.0424 15.0989 44.998C15.3158 43.4716 15.7699 42.1227 16.3863 40.7004V40.6987Z" fill="white"/>
<path d="M27.1945 21.2167C26.2878 19.5298 25.3453 18.017 24.1518 16.5537L20.865 12.5224C19.4564 10.7962 18.2543 9.0119 17.1479 7.07395L17.2247 3.85029C18.2885 6.53439 19.61 8.9214 21.3977 11.1582L25.1251 15.8212C26.3015 17.2913 27.2952 18.7802 28.1968 20.4193L27.1945 21.215V21.2167Z" fill="white"/>
<path d="M61.9924 26.3101L61.5063 27.5263H51V8.70216H54.3227V27.0663L61.9924 26.3101Z" fill="white"/>
<path d="M83.5971 8.70216H86.9198V20.5848C86.9198 23.7715 85.8657 27.7424 80.0323 27.7424C74.199 27.7424 73.2529 23.7715 73.2529 20.5848V8.70216H76.5476V22.6373C76.5476 24.6078 76.9797 27.2563 80.0864 27.2563C83.193 27.2563 83.5971 24.6357 83.5971 22.6373V8.70216Z" fill="white"/>
<path d="M102.934 8.02607H103.096L111.712 24.8518L118.977 7.99999H119.111L122.622 27.5263H119.407L117.085 14.2114L110.333 28.6066H110.171L102.393 13.2671L100.531 27.5263H99.3148L102.934 8.02793V8.02607Z" fill="white"/>
<path d="M135.179 8.70216H138.502V27.5263H135.179V8.70216Z" fill="white"/>
<path d="M151.679 27.5245L152.435 8.02607H152.571L166.938 23.7436L166.75 8.67422H167.884L167.264 28.5246H167.102L152.681 12.483L152.789 27.5263H151.682L151.679 27.5245Z" fill="white"/>
<path d="M185.544 12.8611L183.842 8.70216H187.165L195.132 27.5263H191.676L189.731 22.8533H182.142L180.359 27.5263H178.981L185.544 12.8611ZM185.76 13.3193L182.304 22.3933H189.541L185.76 13.3193Z" fill="white"/>
<path d="M105.331 40.0781C104.82 40.0781 104.374 39.9557 103.991 39.7109C103.611 39.4661 103.314 39.1198 103.1 38.6719C102.889 38.224 102.784 37.6979 102.784 37.0938C102.784 36.4818 102.889 35.9531 103.1 35.5078C103.314 35.0599 103.609 34.7135 103.987 34.4688C104.365 34.224 104.8 34.1016 105.292 34.1016C105.609 34.1016 105.901 34.1523 106.167 34.2539C106.432 34.3529 106.665 34.4909 106.866 34.668C107.069 34.8424 107.236 35.0443 107.366 35.2734C107.496 35.5026 107.583 35.7461 107.628 36.0039H107.057C107.005 35.8112 106.928 35.6328 106.827 35.4688C106.728 35.3021 106.603 35.1549 106.452 35.0273C106.303 34.8997 106.133 34.8008 105.94 34.7305C105.748 34.6576 105.533 34.6211 105.296 34.6211C104.921 34.6211 104.583 34.7187 104.284 34.9141C103.987 35.1094 103.753 35.3919 103.581 35.7617C103.409 36.1289 103.323 36.5729 103.323 37.0938C103.323 37.6068 103.409 38.0482 103.581 38.418C103.753 38.7852 103.99 39.0677 104.292 39.2656C104.594 39.4609 104.94 39.5586 105.331 39.5586C105.69 39.5586 106.004 39.4805 106.272 39.3242C106.543 39.1654 106.753 38.9414 106.901 38.6523C107.052 38.3633 107.128 38.0208 107.128 37.625L107.3 37.668H105.448V37.1758H107.671V37.6562C107.671 38.1484 107.57 38.5755 107.37 38.9375C107.172 39.2995 106.897 39.5807 106.546 39.7812C106.194 39.9792 105.789 40.0781 105.331 40.0781Z" fill="white"/>
<path d="M112.355 40V34.1797H114.253C114.665 34.1797 115.01 34.2552 115.288 34.4062C115.567 34.5547 115.777 34.7604 115.917 35.0234C116.061 35.2865 116.132 35.5898 116.132 35.9336C116.132 36.2721 116.061 36.5716 115.917 36.832C115.777 37.0924 115.567 37.2956 115.288 37.4414C115.012 37.5872 114.669 37.6602 114.257 37.6602H112.663V37.1602H114.234C114.536 37.1602 114.786 37.1094 114.984 37.0078C115.182 36.9062 115.33 36.7643 115.429 36.582C115.531 36.3971 115.581 36.181 115.581 35.9336C115.581 35.6784 115.531 35.457 115.429 35.2695C115.33 35.082 115.18 34.9362 114.98 34.832C114.782 34.7279 114.532 34.6758 114.23 34.6758H112.91V40H112.355ZM115.734 40L114.32 37.3711H114.945L116.374 40H115.734Z" fill="white"/>
<path d="M123.063 40.0781C122.57 40.0781 122.134 39.9557 121.754 39.7109C121.374 39.4661 121.076 39.1211 120.859 38.6758C120.643 38.2279 120.535 37.7005 120.535 37.0938C120.535 36.4844 120.643 35.9557 120.859 35.5078C121.076 35.0599 121.374 34.7135 121.754 34.4688C122.134 34.224 122.57 34.1016 123.063 34.1016C123.552 34.1016 123.987 34.224 124.367 34.4688C124.747 34.7135 125.044 35.0599 125.258 35.5078C125.474 35.9557 125.582 36.4844 125.582 37.0938C125.582 37.7005 125.474 38.2279 125.258 38.6758C125.044 39.1237 124.747 39.4701 124.367 39.7148C123.987 39.957 123.552 40.0781 123.063 40.0781ZM123.063 39.5586C123.44 39.5586 123.777 39.4609 124.074 39.2656C124.374 39.0703 124.609 38.7891 124.781 38.4219C124.956 38.0521 125.043 37.6094 125.043 37.0938C125.043 36.5755 124.956 36.1315 124.781 35.7617C124.609 35.3919 124.374 35.1094 124.074 34.9141C123.777 34.7187 123.44 34.6211 123.063 34.6211C122.682 34.6211 122.343 34.7187 122.043 34.9141C121.744 35.1094 121.507 35.3919 121.332 35.7617C121.16 36.1315 121.074 36.5755 121.074 37.0938C121.074 37.6068 121.16 38.0482 121.332 38.418C121.507 38.7852 121.744 39.0677 122.043 39.2656C122.343 39.4609 122.682 39.5586 123.063 39.5586Z" fill="white"/>
<path d="M132.399 40.0898C131.962 40.0898 131.576 40.0013 131.243 39.8242C130.91 39.6445 130.649 39.3984 130.462 39.0859C130.277 38.7734 130.184 38.4193 130.184 38.0234V34.1797H130.739V37.9844C130.739 38.2891 130.808 38.5612 130.946 38.8008C131.084 39.0404 131.277 39.2292 131.524 39.3672C131.774 39.5052 132.066 39.5742 132.399 39.5742C132.732 39.5742 133.023 39.5052 133.27 39.3672C133.52 39.2292 133.713 39.0404 133.848 38.8008C133.986 38.5612 134.055 38.2891 134.055 37.9844V34.1797H134.61V38.0234C134.61 38.4193 134.516 38.7734 134.329 39.0859C134.144 39.3984 133.885 39.6445 133.551 39.8242C133.221 40.0013 132.837 40.0898 132.399 40.0898Z" fill="white"/>
<path d="M139.474 40V34.1797H141.372C141.784 34.1797 142.129 34.2591 142.408 34.418C142.686 34.5768 142.896 34.7917 143.036 35.0625C143.18 35.3333 143.251 35.6393 143.251 35.9805C143.251 36.3216 143.18 36.6289 143.036 36.9023C142.896 37.1758 142.686 37.3919 142.408 37.5508C142.132 37.7096 141.788 37.7891 141.376 37.7891H139.896V37.293H141.353C141.655 37.293 141.905 37.237 142.103 37.125C142.303 37.0104 142.453 36.8542 142.552 36.6562C142.651 36.4583 142.701 36.2331 142.701 35.9805C142.701 35.7305 142.651 35.5065 142.552 35.3086C142.453 35.1107 142.303 34.9557 142.103 34.8438C141.902 34.7318 141.651 34.6758 141.349 34.6758H140.029V40H139.474Z" fill="white"/>
<path d="M97.0001 36.5V37H54.0001V36.5H97.0001Z" fill="white"/>
<path d="M192 36.5V37H149V36.5H192Z" fill="white"/>
</svg>
